PathFileType	4	(X/Y/Z)	s09c0103.trc
DataRate	CameraRate	NumFrames	NumMarkers	Units	OrigDataRate	OrigDataStartFrame	OrigNumFrames
200	200	4	50	mm	200	1000	2000
Frame#	Time	racr			lacr			c7			jug			rlel			rdr			llel			ldr			s2			lic			ric			lasi			rasi			rpsi			lpsi			rgt			lgt			rth1			rth2			rth3			rth4			rlfc			rmfc			rsh1			rsh2			rsh3			rsh4			rlmal			rmmal			rcal			rtoe			rmt5			lth1			lth2			lth4			lth3			llfc			lmfc			llmal			lmmal			lcal			lmt5			lsh1			lsh2			lsh3			lsh4			ltoe			SBIKE			LBIKE			RBIKE			
		X1	Y1	Z1	X2	Y2	Z2	X3	Y3	Z3	X4	Y4	Z4	X5	Y5	Z5	X6	Y6	Z6	X7	Y7	Z7	X8	Y8	Z8	X9	Y9	Z9	X10	Y10	Z10	X11	Y11	Z11	X12	Y12	Z12	X13	Y13	Z13	X14	Y14	Z14	X15	Y15	Z15	X16	Y16	Z16	X17	Y17	Z17	X18	Y18	Z18	X19	Y19	Z19	X20	Y20	Z20	X21	Y21	Z21	X22	Y22	Z22	X23	Y23	Z23	X24	Y24	Z24	X25	Y25	Z25	X26	Y26	Z26	X27	Y27	Z27	X28	Y28	Z28	X29	Y29	Z29	X30	Y30	Z30	X31	Y31	Z31	X32	Y32	Z32	X33	Y33	Z33	X34	Y34	Z34	X35	Y35	Z35	X36	Y36	Z36	X37	Y37	Z37	X38	Y38	Z38	X39	Y39	Z39	X40	Y40	Z40	X41	Y41	Z41	X42	Y42	Z42	X43	Y43	Z43	X44	Y44	Z44	X45	Y45	Z45	X46	Y46	Z46	X47	Y47	Z47	X48	Y48	Z48	X49	Y49	Z49	X50	Y50	Z50	
1000	5.0000	476.175966	1225.917271	-55.412472	562.576083	1221.392151	-359.528572	501.977823	1275.479620	-204.881321	456.407609	1144.710851	-224.671460	464.494338	981.559366	11.266923	688.225716	882.616330	-44.321718	492.727920	996.009824	-513.669668	697.092734	874.852538	-430.217608	12.257418	1135.597006	-279.349308	148.688713	1119.396550	-421.350760	144.714123	1157.385246	-125.166851	187.424419	1066.619323	-391.562921	190.181724	1111.893422	-143.513318	33.744625	1174.706114	-221.462731	44.333895	1167.917624	-329.869101	145.952961	1058.116067	-69.969077	105.028692	973.822592	-440.754205	269.395473	1007.318664	-88.051885	356.087829	999.724130	-103.616222	425.595430	947.283280	-100.975898	363.316317	1020.692133	-131.898046	506.609437	869.487184	-131.726278	484.431143	842.151893	-230.168651	443.306710	789.727859	-94.608744	415.721928	704.242737	-99.524672	349.937129	646.147588	-90.574018	435.446599	691.142206	-131.589354	293.354913	556.361511	-81.600272	289.657248	566.323751	-158.786967	204.617158	531.964529	-112.376524	466.185560	487.643341	-132.358265	387.046442	482.822833	-62.489351	174.485344	852.157464	-434.146926	232.541376	790.447783	-426.809229	266.540598	807.338322	-423.174284	253.168712	703.908428	-410.982642	284.094487	612.232658	-392.913129	296.597915	599.469332	-294.547575	127.480762	281.386472	-405.393123	151.686028	282.020890	-335.369504	57.561351	261.579373	-366.318294	205.911825	170.946265	-427.963051	242.955500	523.760850	-416.254008	228.063613	439.018065	-406.977444	171.871609	370.364400	-409.029104	250.945036	431.292408	-375.859645	299.437927	160.429104	-362.580694	-65.039148	851.267049	-241.368754	21.181537	84.004076	-442.340856	21.154321	84.110170	-43.944695	
1001	5.0050	477.253658	1226.187280	-55.754113	560.740635	1220.017582	-360.115854	502.060225	1275.622779	-206.128854	455.212627	1145.234161	-225.403363	464.898861	982.045579	11.690566	688.086477	882.667687	-44.590028	490.826561	994.166870	-513.275805	696.585960	874.658842	-430.315826	11.895183	1136.705147	-277.111336	146.977250	1120.342876	-419.650774	144.643044	1158.173389	-123.625911	186.289972	1067.466231	-390.392425	189.993816	1112.362244	-141.685042	33.772147	1175.706645	-219.535824	43.748346	1168.732163	-327.978255	145.625231	1057.073598	-68.673428	104.064980	975.108140	-439.283807	269.231149	1003.858509	-86.429959	355.721383	995.573251	-101.736478	425.155252	941.654338	-100.627700	363.328931	1016.821551	-129.923539	505.070166	863.777836	-131.865423	482.263036	836.694687	-229.379378	442.914438	782.340276	-93.800147	417.018026	696.218973	-99.141722	352.297325	636.801421	-90.310567	436.804822	683.387727	-131.291935	297.960356	546.163313	-81.355306	293.907934	556.372538	-159.001879	209.588815	517.975327	-112.575058	473.319183	486.007055	-132.061036	394.592098	477.334702	-62.111367	175.715541	853.951319	-432.449597	234.686036	793.215955	-425.049615	268.371021	810.449687	-421.417929	256.434031	706.889815	-409.635278	288.600295	614.992351	-391.908484	299.981176	602.676646	-293.015357	121.718079	288.993549	-404.962507	146.171449	288.910995	-334.808788	51.424221	270.914858	-365.586829	196.767212	177.589278	-428.779981	244.814182	527.661190	-415.464137	227.201281	443.357664	-406.220478	168.920348	376.521756	-408.464941	249.676784	434.685437	-374.544289	290.618889	163.637554	-362.693202	-64.999022	851.274414	-241.237916	21.170437	84.045037	-442.320627	21.148178	84.083952	-43.942571	
1002	5.0100	478.424519	1226.652035	-56.243770	559.068586	1219.789774	-361.810576	502.070075	1275.894957	-207.605335	454.489644	1145.679428	-226.209893	465.279109	982.650363	11.937189	688.142444	883.359460	-44.786163	488.945623	992.026480	-512.690670	696.042752	874.512036	-430.519943	11.454571	1137.770749	-274.732084	145.206310	1121.185178	-417.903845	144.637809	1158.773209	-122.014140	185.115293	1068.083600	-389.130877	189.724323	1112.532807	-139.763638	33.731251	1176.292388	-217.549509	43.008286	1169.342144	-325.960470	145.175287	1055.396974	-67.489771	103.289879	976.318139	-437.919848	268.689235	999.379708	-85.354977	355.390594	990.477074	-100.075221	424.406207	935.535724	-99.684334	363.411783	1012.114613	-127.777071	502.188116	856.514419	-130.401789	480.409142	830.155838	-228.495729	442.156219	774.379122	-93.170237	418.399896	687.480062	-98.785979	354.664793	627.031024	-89.810745	437.795932	675.682225	-131.065864	302.771001	535.146894	-81.159390	298.273745	545.618368	-159.038963	214.829443	503.336942	-112.779696	480.077192	483.367607	-131.506132	401.739215	471.008453	-61.712104	177.489646	855.999007	-431.065994	237.372296	796.294702	-423.248961	270.690444	814.009237	-419.295731	260.404209	710.139205	-408.456857	293.547903	617.889296	-391.051571	303.697711	605.780074	-292.410445	116.381613	297.057653	-404.660249	141.013377	296.299787	-334.375067	45.737295	280.749241	-364.996828	188.469136	184.001376	-428.771241	246.857786	531.828489	-414.902335	226.705508	448.147006	-405.783175	166.218979	383.149001	-408.050115	248.665714	438.712457	-373.893729	282.143025	167.305234	-362.615397	-64.957234	851.284038	-241.078670	21.160912	84.075940	-442.315238	21.113590	84.084583	-43.922547	
1003	5.0150	479.744061	1227.235542	-57.080327	557.304006	1219.185502	-363.897297	502.251173	1275.705956	-209.697774	453.856781	1145.631190	-227.116552	465.703078	983.502572	11.953775	687.915701	883.315838	-45.086555	487.071903	989.894184	-512.032764	695.463146	874.359292	-430.788126	10.984070	1138.505392	-272.196521	143.513556	1121.841394	-416.180297	144.606923	1159.022298	-120.300952	184.019544	1068.638601	-387.864446	189.566628	1112.298026	-137.986349	34.371655	1176.558598	-216.270668	42.225411	1169.899436	-323.697663	144.572247	1053.209152	-66.347432	102.730674	977.484658	-436.678830	268.534567	995.033957	-82.908759	354.235120	984.711475	-97.650600	423.142983	928.037996	-98.556315	363.376064	1006.650624	-125.364335	499.241107	848.705416	-128.906872	478.703112	823.066388	-228.118239	441.156398	765.831234	-92.794350	419.312121	678.644998	-98.412448	356.928526	616.789762	-89.301341	438.734606	667.284052	-130.776153	307.710282	523.760795	-81.070829	302.621825	534.620705	-158.974851	220.343675	488.359717	-113.056214	486.380570	479.822251	-131.228744	408.642618	464.129932	-61.310833	179.743496	858.283365	-429.946161	240.579757	799.602191	-421.512693	273.459372	817.851130	-416.895275	264.938081	713.676631	-407.385588	298.785374	620.792621	-390.404241	307.666799	608.841599	-291.988698	111.326889	305.525340	-404.713768	136.317117	304.141991	-334.075838	40.582845	291.040756	-364.584832	180.791907	190.596147	-428.413851	249.147050	536.214603	-414.478858	226.434238	453.348904	-405.547620	163.905042	390.105382	-407.731745	247.976046	443.130738	-373.427417	274.053683	171.625083	-362.470719	-64.907461	851.270981	-240.880048	21.147442	84.088006	-442.299342	21.133278	84.037618	-43.929021	
